<svg id="Capa_1" enable-background="new 0 0 496.89 496.89" height="512" viewBox="0 0 496.89 496.89" width="512" xmlns="http://www.w3.org/2000/svg"><g><g id="XMLID_133_"><g><path d="m403.815 335.815v109.29c0 28.42-23.04 51.47-51.47 51.47h-135.05c-12.82 0-23.21-10.39-23.21-23.21v-25.79c0-10.98 8.9-19.89 19.89-19.89h38.33c10.98 0 19.89 8.91 19.89 19.89v19.55c0 .98.79 1.77 1.76 1.77h78.32c13.18 0 23.86-10.68 23.86-23.86v-109.22z" fill="#cac5cb"/></g></g><path d="m70.542 215.848-40.867 10.223c-17.441 4.363-29.675 20.035-29.675 38.013v64.631c0 17.978 12.234 33.65 29.675 38.013l40.867 10.223s19.4 7.338 19.4 5.052 2.728-167.871 2.728-167.871z" fill="#badafb"/><path d="m64.359 350.925c-17.441-4.363-29.675-20.035-29.675-38.013v-64.631c0-9.817 3.654-18.94 9.805-25.916l-14.814 3.706c-17.441 4.363-29.675 20.035-29.675 38.013v64.631c0 17.978 12.234 33.65 29.675 38.013l40.867 10.223s19.4 7.338 19.4 5.052c0-.54.152-10.176.384-24.582z" fill="#97c9f9"/><path d="m467.215 226.071-40.867-10.223-22.128-7.179v173.334l22.128-5.052 40.867-10.223c17.441-4.363 29.675-20.035 29.675-38.013v-64.631c0-17.978-12.234-33.65-29.675-38.013z" fill="#badafb"/><path d="m426.275 150.445-5.355-11.47h-22.226l-6.359 11.47c.19 2.89.29 5.8.29 8.74v39.65c0 2.09-1.69 3.78-3.78 3.78h-11.18c-12.43 0-22.51 10.08-22.51 22.51v143.09c0 12.42 10.08 22.5 22.51 22.5h36.64c6.65 0 12.04-5.39 12.04-12.05v-223.62c0-1.54-.02-3.07-.07-4.6z" fill="#b3adb5"/><path d="m119.225 202.615h-11.18c-2.09 0-3.78-1.69-3.78-3.78v-39.65c0-2.94.1-5.85.29-8.74l-3.605-8.13h-26.356l-3.979 8.13c-.05 1.53-.07 3.06-.07 4.6v223.62c0 6.66 5.39 12.05 12.04 12.05h36.64c12.43 0 22.51-10.08 22.51-22.5v-143.09c0-12.43-10.08-22.51-22.51-22.51z" fill="#b3adb5"/><path d="m271.615.315h-46.34c-69.2 0-127.78 45.43-147.57 108.08l5.854 11.348h20.088l11.078-11.348c19.67-45.52 64.97-77.38 117.72-77.38h32c52.75 0 98.05 31.86 117.72 77.38l14.322 12.385h16.635l6.062-12.385c-19.789-62.65-78.369-108.08-147.569-108.08z" fill="#badafb"/><g><g><g id="XMLID_134_"><g fill="#97c9f9"><path d="m426.275 150.445h-33.94c-1-14.86-4.53-29.01-10.17-42.05h37.02c4.21 13.33 6.67 27.43 7.09 42.05z"/><path d="m77.705 108.395h37.02c-5.64 13.04-9.17 27.19-10.17 42.05h-33.94c.42-14.62 2.88-28.72 7.09-42.05z"/></g></g></g><g id="XMLID_135_"><g><path d="m403.815 418.585v26.52c0 1.34-.05 2.66-.15 3.97h-27.87c.22-1.31.34-2.66.34-4.04v-26.45z" fill="#b3adb5"/></g></g><g><path d="m303.471 350.963c-1.549 0-3.111-.478-4.452-1.469-36.2-26.756-84.84-26.755-121.036 0-3.33 2.462-8.026 1.759-10.489-1.573-2.462-3.331-1.758-8.027 1.573-10.489 41.531-30.697 97.339-30.696 138.868 0 3.331 2.462 4.035 7.158 1.573 10.489-1.47 1.989-3.739 3.042-6.037 3.042z" fill="#badafb"/></g><g><path d="m191.363 375.088c-2.298 0-4.566-1.052-6.037-3.042-2.462-3.331-1.758-8.027 1.573-10.489 30.865-22.814 72.339-22.814 103.204 0 3.331 2.462 4.035 7.158 1.573 10.489-2.461 3.331-7.159 4.036-10.489 1.573-25.531-18.872-59.841-18.872-85.372 0-1.341.991-2.903 1.469-4.452 1.469z" fill="#badafb"/></g><g><path d="m267.808 399.213c-1.549 0-3.111-.478-4.452-1.469-14.865-10.987-34.841-10.988-49.71 0-3.33 2.463-8.026 1.759-10.489-1.573-2.462-3.331-1.758-8.027 1.573-10.489 20.199-14.929 47.343-14.93 67.542 0 3.331 2.462 4.035 7.158 1.573 10.489-1.47 1.99-3.739 3.042-6.037 3.042z" fill="#badafb"/></g></g></g></svg>