<svg xmlns="http://www.w3.org/2000/svg" viewBox="0 0 448.91 284"><defs><style>.cls-1{fill:#fb071a;}.cls-2{fill:#ef8c00;}.cls-3{fill:#f2f40b;}.cls-4{fill:#39c806;}.cls-5{fill:#01cab1;}.cls-6{fill:#ff2e6f;}.cls-7{fill:#ff4194;}.cls-8{fill:#f9dd0d;}.cls-9{fill:#56baff;}.cls-10{fill:#88a80d;}.cls-11{fill:#02a0ca;}.cls-12{fill:#995bfb;}</style></defs><g id="Capa_2" data-name="Capa 2"><g id="Capa_1-2" data-name="Capa 1"><path class="cls-1" d="M327.83,95.59c-32.33-17.36-72.63-7.7-89.95,21.56l7.64,4.29c16.31-25.4,51-34.13,78.48-19.36,27.89,15,38.78,48.94,24.83,76.11l7.95,4.27C373.69,152.42,360.62,113.2,327.83,95.59Z"/><path class="cls-2" d="M326.14,100.88c-31.2-16.23-70.05-7.27-86.73,20l7.37,4c15.7-23.69,49.14-31.79,75.68-18,26.92,14,37.46,45.7,24,71l7.68,4C370.45,154,357.79,117.35,326.14,100.88Z"/><path class="cls-3" d="M323.7,105.87c-30-16.19-67.33-7.17-83.41,20.13l7.09,4c15.12-23.7,47.28-31.85,72.77-18.08,25.85,14,35.94,45.64,23,71l7.38,4C366.21,158.87,354.1,122.29,323.7,105.87Z"/><path class="cls-4" d="M320.25,110.8c-28-14.23-62.87-6.42-77.82,17.45l6.63,3.52C263.12,111.05,293.13,104,317,116.09c24.17,12.28,33.66,40,21.63,62.2l6.89,3.51C360.05,157.29,348.67,125.24,320.25,110.8Z"/><path class="cls-5" d="M317.74,114.05c-24.94-12.68-56-5.72-69.28,15.54l5.89,3.13c12.53-18.45,39.24-24.74,60.45-14,21.51,10.93,30,35.66,19.25,55.4l6.14,3.12C353.17,155.45,343,126.91,317.74,114.05Z"/><path class="cls-6" d="M73.89,145.53A11,11,0,0,0,60.66,144,27.53,27.53,0,0,1,47,147.57c-15.55,0-28.16-12.91-28.16-28.84S31.48,89.89,47,89.89a27.5,27.5,0,0,1,9.28,1.6,10.86,10.86,0,0,0,12.45-3.78l.64-.9a10.23,10.23,0,0,0-3.66-15.17,43.65,43.65,0,0,0-7.8-3c-24.76-7-50.29,9.76-56.54,37.14s9,55.66,33.75,62.67A42.92,42.92,0,0,0,73,161a10.21,10.21,0,0,0,.9-15.45Z"/><rect class="cls-7" x="352" y="205" width="13" height="72" rx="6.5"/><rect class="cls-8" x="324" y="16" width="13" height="31" rx="6.24" transform="translate(624.88 -122.01) rotate(147.02)"/><rect class="cls-8" x="363" width="13" height="31" rx="6.24"/><rect class="cls-8" x="427" y="48" width="13" height="31" rx="6.24" transform="translate(422.62 -374.49) rotate(80.24)"/><rect class="cls-8" x="406" y="10" width="13" height="31" rx="6.24" transform="translate(103.09 -248.49) rotate(37.99)"/><rect class="cls-8" x="422" y="92" width="13" height="31" rx="6.24" transform="translate(619.62 -290.8) rotate(101.55)"/><path class="cls-9" d="M188,116.54C188,105.2,177.25,96,164,96a27.3,27.3,0,0,0-11.11,2.33A6.5,6.5,0,0,0,140,99.5v58a6.5,6.5,0,0,0,13,0V117h0a10.88,10.88,0,0,1,21.69,0H175v41.06a6.53,6.53,0,0,0,13,0V116.94s0-.09,0-.14A2.17,2.17,0,0,0,188,116.54Z"/><path class="cls-9" d="M423,229.54C423,218.2,412.25,209,399,209a27.3,27.3,0,0,0-11.11,2.33A6.5,6.5,0,0,0,375,212.5v58a6.5,6.5,0,0,0,13,0V230h0a10.88,10.88,0,0,1,21.69,0H410v41.06a6.53,6.53,0,0,0,13,0V229.94c0-.05,0-.09,0-.14A2.17,2.17,0,0,0,423,229.54Z"/><path class="cls-10" d="M188,193.32a7.45,7.45,0,0,0-6.94-6.82H144.85a6.25,6.25,0,0,0-6.25,6.25v1.71a6.25,6.25,0,0,0,6.25,6.25h26V201H171c0,.3,0,.59,0,.89v52.16c0,8.26-6.27,14.95-14,14.95s-14-6.69-14-14.95V237.82a25.07,25.07,0,0,0-11,20.45c0,14.21,12.54,25.73,28,25.73s28-11.52,28-25.73c0-.41,0-.82,0-1.22,0-.21,0-.43,0-.64Z"/><path class="cls-9" d="M276.59,249.37a21.49,21.49,0,1,0-14.94-40A6.5,6.5,0,0,0,249,211.5v60a6.5,6.5,0,0,0,13,0V253.17l18.69,18.69a6.51,6.51,0,0,0,9.19,0h0a6.51,6.51,0,0,0,0-9.2ZM261,228a10.51,10.51,0,1,1,10.5,10A10.26,10.26,0,0,1,261,228Z"/><path class="cls-10" d="M334.41,203h0a7.58,7.58,0,0,0-7.58,7.59v17.13a17.31,17.31,0,0,0-10.48-3.64c-11.24,0-20.35,11.41-20.35,25.47S305.11,275,316.35,275a17.44,17.44,0,0,0,11-4.09,7.61,7.61,0,0,0,7,4.72h0a7.59,7.59,0,0,0,7.59-7.59V210.59A7.59,7.59,0,0,0,334.41,203ZM319,260a10,10,0,1,1,10-10A10,10,0,0,1,319,260Z"/><circle class="cls-8" cx="374" cy="74" r="35"/><path class="cls-10" d="M125.5,93.34a6.5,6.5,0,0,0-6.5,6.5v41.58a8.58,8.58,0,0,1-8.58,8.58h-1.84a8.58,8.58,0,0,1-8.58-8.58V99.84a6.5,6.5,0,0,0-13,0v45a5.49,5.49,0,0,0,0,.58h0a.49.49,0,0,0,0,.12c.67,11,10.47,19.79,22.46,19.79s21.79-8.76,22.46-19.79a.49.49,0,0,0,0-.12h0a5.49,5.49,0,0,0,0-.58v-45A6.5,6.5,0,0,0,125.5,93.34Z"/><path class="cls-6" d="M219,205c-11.11,0-21.95,5-21.95,20.95a.05.05,0,0,0,0,.05H209A0,0,0,0,0,209,226v-.6a9.23,9.23,0,0,1,8.44-9.33,9,9,0,0,1,9.56,9v1h0a4.19,4.19,0,0,0,0,.5V239a18.5,18.5,0,0,0-13.5-6c-10.77,0-19.5,9.63-19.5,21.5s8.73,21.5,19.5,21.5a18.5,18.5,0,0,0,13.5-6v1.51a6.5,6.5,0,0,0,13,0v-45c0-.25,0-.49,0-.73C240.88,208,227.42,205,219,205Zm-5,59c-5,0-9-4.48-9-10s4-10,9-10,9,4.48,9,10S219,264,214,264Z"/><path class="cls-11" d="M315.83,119.08c-22.61-12.16-51.34-6.76-64.15,12l5.34,3c12-16.3,36.75-21.21,56-10.88,19.5,10.48,26.61,33,16.23,50.54l5.56,3C347.32,157.44,338.75,131.4,315.83,119.08Z"/><path class="cls-12" d="M313.93,123.75c-20.8-12-47.33-6.49-59.25,12.37l4.91,3c11.17-16.35,34-21.4,51.71-11.16,17.93,10.37,24.37,32.87,14.71,50.43l5.12,3C342.78,161.94,335,136,313.93,123.75Z"/><path class="cls-9" d="M265.08,130.49c0-6.38-4.85-11.56-10.84-11.56a9.19,9.19,0,0,0-1.58.14,10.75,10.75,0,0,0-9.54-6.07c-5.55,0-10.12,4.45-10.76,10.19a11.73,11.73,0,0,0-5.36,10c0,6.38,4.85,11.56,10.84,11.56a10,10,0,0,0,2.46-.31,10.5,10.5,0,0,0,7.83,3.57,10.82,10.82,0,0,0,9.79-6.62A11.55,11.55,0,0,0,265.08,130.49Z"/><path class="cls-9" d="M357,184.19a10.18,10.18,0,0,0-11.74-10.33,10.2,10.2,0,0,0-19.19,3.73,10.49,10.49,0,0,0-5.07,9,10.35,10.35,0,0,0,10.25,10.45,9.83,9.83,0,0,0,2.32-.28A10.12,10.12,0,0,0,341,200a10.23,10.23,0,0,0,9.26-6A10.43,10.43,0,0,0,357,184.19Z"/><rect class="cls-7" x="362" y="172" width="13" height="31" rx="6.24" transform="translate(161.47 -170.39) rotate(32.98)"/><path class="cls-6" d="M218,93c-11.11,0-21.95,5-21.95,21a.05.05,0,0,0,0,0H208a0,0,0,0,0,.05,0v-.6a9.23,9.23,0,0,1,8.44-9.33,9,9,0,0,1,9.56,9v1h0a4.19,4.19,0,0,0,0,.5V127a18.5,18.5,0,0,0-13.5-6c-10.77,0-19.5,9.63-19.5,21.5s8.73,21.5,19.5,21.5a18.5,18.5,0,0,0,13.5-6v1.51a6.5,6.5,0,0,0,13,0v-45c0-.25,0-.49,0-.73C239.88,96,226.42,93,218,93Zm-5,59c-5,0-9-4.48-9-10s4-10,9-10,9,4.48,9,10S218,152,213,152Z"/><path class="cls-9" d="M110,212.38a17.81,17.81,0,0,0-17.72-17.9,17.45,17.45,0,0,0-6.23,1.16,17.61,17.61,0,0,0-30.88-1,17.61,17.61,0,0,0-20.26,17.7,19.17,19.17,0,0,0,.19,2.52,17.92,17.92,0,0,0,11.62,31.39,17.18,17.18,0,0,0,5-.74,17.58,17.58,0,0,0,27.72-3,17.58,17.58,0,0,0,12.84,5.58,17.9,17.9,0,0,0,15.33-26.84A18,18,0,0,0,110,212.38Z"/></g></g></svg>